<svg width="400" height="300" xmlns="http://www.w3.org/2000/svg">
  <defs>
    <linearGradient id="bg3" x1="0%" y1="0%" x2="100%" y2="100%">
      <stop offset="0%" style="stop-color:#667eea;stop-opacity:1" />
      <stop offset="100%" style="stop-color:#764ba2;stop-opacity:1" />
    </linearGradient>
  </defs>
  
  <!-- Background -->
  <rect width="400" height="300" fill="url(#bg3)"/>
  
  <!-- Conference table -->
  <ellipse cx="200" cy="180" rx="120" ry="60" fill="#1A1A2E" stroke="#FF7700" stroke-width="2"/>
  
  <!-- Chairs around table -->
  <circle cx="140" cy="140" r="15" fill="#333"/>
  <circle cx="200" cy="120" r="15" fill="#333"/>
  <circle cx="260" cy="140" r="15" fill="#333"/>
  <circle cx="280" cy="180" r="15" fill="#333"/>
  <circle cx="260" cy="220" r="15" fill="#333"/>
  <circle cx="200" cy="240" r="15" fill="#333"/>
  <circle cx="140" cy="220" r="15" fill="#333"/>
  <circle cx="120" cy="180" r="15" fill="#333"/>
  
  <!-- People at table -->
  <circle cx="140" cy="130" r="8" fill="#FFF"/>
  <circle cx="200" cy="110" r="8" fill="#FFF"/>
  <circle cx="260" cy="130" r="8" fill="#FFF"/>
  <circle cx="290" cy="180" r="8" fill="#FFF"/>
  <circle cx="260" cy="230" r="8" fill="#FFF"/>
  <circle cx="200" cy="250" r="8" fill="#FFF"/>
  <circle cx="140" cy="230" r="8" fill="#FFF"/>
  <circle cx="110" cy="180" r="8" fill="#FFF"/>
  
  <!-- Documents on table -->
  <rect x="180" y="160" width="40" height="30" fill="#FFF" rx="2"/>
  <rect x="170" y="190" width="35" height="25" fill="#FFF" rx="2"/>
  <rect x="210" y="175" width="30" height="20" fill="#FFF" rx="2"/>
  
  <!-- Handshake in center -->
  <g transform="translate(200,180)">
    <rect x="-15" y="-5" width="12" height="8" fill="#FF7700" rx="2"/>
    <rect x="3" y="-5" width="12" height="8" fill="#FF9838" rx="2"/>
    <circle cx="-9" cy="-10" r="3" fill="#FF7700"/>
    <circle cx="9" cy="-10" r="3" fill="#FF9838"/>
  </g>
  
  <!-- African continent outline -->
  <g transform="translate(50,50) scale(0.8)">
    <path d="M30,20 Q35,15 45,20 Q55,25 60,35 Q65,50 55,65 Q50,75 40,80 Q25,85 15,75 Q10,65 12,50 Q15,35 20,25 Q25,15 30,20 Z" fill="none" stroke="#FFF" stroke-width="2"/>
  </g>
  
  <!-- Partnership symbols -->
  <circle cx="320" cy="60" r="20" fill="none" stroke="#FFF" stroke-width="2"/>
  <circle cx="320" cy="60" r="12" fill="none" stroke="#FFF" stroke-width="2"/>
  <circle cx="320" cy="60" r="6" fill="#FFF"/>
  
  <!-- Title -->
  <text x="200" y="25" text-anchor="middle" fill="#FFF" font-family="Arial, sans-serif" font-size="14" font-weight="bold">Africa Web3 Partnership Forum</text>
</svg>